<svg viewBox="108.14 214.535 108.139 71.512" xmlns="http://www.w3.org/2000/svg">
    <g id="logo-group" transform="matrix(1, 0, 0, 1, -114.115494, -197.582489)">
        <g id="logo-center" transform="translate(0 0)">
            <g id="title"
               style="font-style:normal;font-weight:500;font-size:72px;line-height:1;font-family:'Raleway Medium Alt1';font-variant-ligatures:none;text-align:center;text-anchor:middle"
               transform="translate(0 0)">
                <path id="path277298"
                      style="font-style:normal;font-weight:500;font-size:72px;line-height:1;font-family:'Raleway Medium Alt1';font-variant-ligatures:none;text-align:center;text-anchor:middle"
                      d="M 237.221 439.802 C 238.021 437.164 239.299 434.767 240.978 432.689 C 242.576 430.611 244.654 428.853 247.052 427.574 C 249.449 426.295 252.246 425.576 255.443 425.576 C 256.882 425.576 258.32 425.736 259.839 426.055 C 261.277 426.375 262.716 426.934 264.154 427.654 C 265.513 428.453 266.872 429.412 268.07 430.611 C 269.269 431.889 270.308 433.408 271.187 435.166 L 276.862 431.49 C 275.103 427.814 272.386 424.857 268.79 422.539 C 265.113 420.301 260.798 419.102 255.763 419.102 C 251.447 419.102 247.691 419.981 244.334 421.58 C 240.898 423.258 238.1 425.416 235.783 428.133 C 233.465 430.851 231.707 433.887 230.508 437.244 C 229.629 439.642 229.149 442.039 228.91 444.357 L 236.182 444.357 C 236.422 442.839 236.742 441.32 237.221 439.802 Z M 271.907 460.181 C 271.107 461.939 270.068 463.458 268.79 464.737 C 267.511 466.015 266.152 467.054 264.794 467.853 C 263.275 468.653 261.837 469.292 260.238 469.612 C 258.64 470.011 257.121 470.171 255.683 470.171 C 252.806 470.171 250.248 469.612 247.851 468.333 C 245.453 467.134 243.375 465.456 241.617 463.378 C 239.779 461.3 238.42 458.982 237.461 456.265 C 236.822 454.587 236.422 452.908 236.182 451.07 L 228.91 451.07 C 229.229 453.468 229.789 455.786 230.668 458.103 C 231.947 461.62 233.785 464.737 236.182 467.454 C 238.58 470.171 241.377 472.409 244.654 474.087 C 247.851 475.845 251.447 476.645 255.363 476.645 C 257.521 476.645 259.759 476.405 262.076 475.766 C 264.314 475.206 266.472 474.407 268.55 473.208 C 270.628 472.169 272.466 470.731 274.064 469.132 C 275.663 467.534 276.942 465.616 277.901 463.458 L 271.907 460.181 Z"
                      stroke-width="0" stroke-linejoin="miter" stroke-miterlimit="2" fill="#6c0559" stroke="#6c0559"/>
                <path id="path277308"
                      style="font-style:normal;font-weight:500;font-size:72px;line-height:1;font-family:'Raleway Medium Alt1';font-variant-ligatures:none;text-align:center;text-anchor:middle"
                      d="M 322.461 431.09 C 321.582 428.933 320.383 427.014 318.865 425.256 C 317.346 423.498 315.508 422.139 313.43 421.1 C 311.352 420.061 309.035 419.502 306.557 419.502 L 282.901 419.502 L 282.901 442.199 L 290.094 442.199 L 290.094 425.896 L 306.157 425.896 C 307.516 425.896 308.795 426.215 310.074 426.775 C 311.272 427.414 312.391 428.213 313.35 429.252 C 314.309 430.371 315.029 431.57 315.588 433.008 C 316.147 434.447 316.467 436.045 316.467 437.644 C 316.467 439.242 316.227 440.761 315.748 442.199 C 315.188 443.718 314.549 444.917 313.75 446.035 C 312.871 447.154 311.832 447.953 310.633 448.593 C 309.434 449.232 308.076 449.472 306.637 449.472 L 282.901 449.472 L 282.901 476.245 L 290.094 476.245 L 290.094 455.866 L 307.037 455.866 C 309.514 455.866 311.752 455.386 313.83 454.347 C 315.908 453.388 317.666 452.029 319.105 450.271 C 320.543 448.593 321.662 446.675 322.541 444.437 C 323.34 442.279 323.74 440.041 323.74 437.644 C 323.74 435.406 323.26 433.248 322.461 431.09 Z"
                      stroke-width="0" stroke-linejoin="miter" stroke-miterlimit="2" fill="#ac0e99" stroke="#ac0e99"/>
            </g>
        </g>
    </g>
</svg>