<svg viewBox="0 0 400 100" xmlns="http://www.w3.org/2000/svg">
    <linearGradient spreadMethod="pad" y2="30%" x2="-10%" y1="120%" x1="30%"
                    id="3d_gradient2-logo-09b47f76-9561-47a5-9c28-a0f5e1dde42e">
        <stop id="stop277270" stop-opacity="1" stop-color="#ffffff" offset="0"></stop>
        <stop id="stop277272" stop-opacity="1" stop-color="#000000" offset="1"></stop>
    </linearGradient>
    <linearGradient gradientTransform="rotate(-30)" spreadMethod="pad" y2="30%" x2="-10%" y1="120%" x1="30%"
                    id="3d_gradient3-logo-09b47f76-9561-47a5-9c28-a0f5e1dde42e">
        <stop id="stop277275" stop-opacity="1" stop-color="#ffffff" offset="0"></stop>
        <stop id="stop277277" stop-opacity="1" stop-color="#cccccc" offset="0.5"></stop>
        <stop id="stop277279" stop-opacity="1" stop-color="#000000" offset="1"></stop>
    </linearGradient>
    <g id="logo-group" transform="matrix(1, 0, 0, 1, -312, -334)">
        <g id="logo-center" transform="translate(0 0)">
            <g id="title"
               style="font-style:normal;font-weight:500;font-size:72px;line-height:1;font-family:'Raleway Medium Alt1';font-variant-ligatures:none;text-align:center;text-anchor:middle"
               transform="translate(0 0)">
                <path id="path277298"
                      style="font-style:normal;font-weight:500;font-size:72px;line-height:1;font-family:'Raleway Medium Alt1';font-variant-ligatures:none;text-align:center;text-anchor:middle"
                      d="m 345.53375,-32.76 c 0.72,-2.376 1.872,-4.536 3.384,-6.408 1.44,-1.872 3.312,-3.456 5.472,-4.608 2.16,-1.152 4.68,-1.8 7.56,-1.8 1.296,0 2.592,0.144 3.96,0.432 1.296,0.288 2.592,0.792 3.888,1.44 1.224,0.72 2.448,1.584 3.528,2.664 1.08,1.152 2.016,2.52 2.808,4.104 l 5.112,-3.312 c -1.584,-3.312 -4.032,-5.976 -7.272,-8.064 -3.312,-2.016 -7.2,-3.096 -11.736,-3.096 -3.888,0 -7.272,0.792 -10.296,2.232 -3.096,1.512 -5.616,3.456 -7.704,5.904 -2.088,2.448 -3.672,5.184 -4.752,8.208 -0.792,2.16 -1.224,4.32 -1.44,6.408 h 6.552 c 0.216,-1.368 0.504,-2.736 0.936,-4.104 z m 31.248,18.36 c -0.72,1.584 -1.656,2.952 -2.808,4.104 -1.152,1.152 -2.376,2.088 -3.6,2.808 -1.368,0.72 -2.664,1.296 -4.104,1.584 -1.44,0.36 -2.808,0.504 -4.104,0.504 -2.592,0 -4.896,-0.504 -7.056,-1.656 -2.16,-1.08 -4.032,-2.592 -5.616,-4.464 -1.656,-1.872 -2.88,-3.96 -3.744,-6.408 -0.576,-1.512 -0.936,-3.024 -1.152,-4.68 h -6.552 c 0.288,2.16 0.792,4.248 1.584,6.336 1.152,3.168 2.808,5.976 4.968,8.424 2.16,2.448 4.68,4.464 7.632,5.976 2.88,1.584 6.12,2.304 9.648,2.304 1.944,0 3.96,-0.216 6.048,-0.792 2.016,-0.504 3.96,-1.224 5.832,-2.304 1.872,-0.936 3.528,-2.232 4.968,-3.672 1.44,-1.44 2.592,-3.168 3.456,-5.112 z"
                      stroke-width="0" stroke-linejoin="miter" stroke-miterlimit="2" fill="#6c0559" stroke="#6c0559"
                      transform="translate(0 301.61980000000005) translate(319.90353874999994 45.497119999999995) scale(1.11) translate(-338.04575 51.408)"></path>
                <path id="path277300"
                      style="font-style:normal;font-weight:500;font-size:72px;line-height:1;font-family:'Raleway Medium Alt1';font-variant-ligatures:none;text-align:center;text-anchor:middle"
                      d="m 391.01187,10.224 v 5.616 c 0.648,0.144 1.22401,0.288 1.656,0.288 0.432,0.072 0.93601,0.072 1.368,0.072 2.73601,0 4.824,-0.576 6.408,-1.872 1.584,-1.296 2.664,-2.736 3.384,-4.464 l 18.28801,-47.448 h -6.048 l -11.664,31.896 -12.81601,-31.896 h -6.552 L 400.94787,0 c -0.864,2.232 -1.584,4.032 -2.16,5.4 -0.57599,1.368 -1.152,2.448 -1.584,3.168 -0.43199,0.792 -0.936,1.296 -1.368,1.584 -0.432,0.288 -0.936,0.36 -1.512,0.36 -0.35999,0 -0.864,0 -1.44,-0.072 -0.64799,0 -1.296,-0.072 -1.872,-0.216 z"
                      stroke-width="0" stroke-linejoin="miter" stroke-miterlimit="2" fill="#790766" stroke="#790766"
                      transform="translate(0 301.61980000000005) translate(372.06257194999995 60.841759999999994) scale(1.11) translate(-385.03587 37.584)"></path>
                <path id="path277302"
                      style="font-style:normal;font-weight:500;font-size:72px;line-height:1;font-family:'Raleway Medium Alt1';font-variant-ligatures:none;text-align:center;text-anchor:middle"
                      d="m 447.81425,0.72 c 2.448,0 4.824,-0.504 6.984,-1.512 2.16,-1.008 4.104,-2.448 5.688,-4.176 1.584,-1.728 2.808,-3.816 3.744,-6.192 0.864,-2.304 1.368,-4.824 1.368,-7.488 0,-2.448 -0.432,-4.896 -1.224,-7.272 -0.792,-2.376 -1.944,-4.464 -3.384,-6.264 -1.44,-1.8 -3.24,-3.24 -5.256,-4.392 -2.088,-1.08 -4.392,-1.656 -6.984,-1.656 -3.096,0 -5.76,0.792 -8.064,2.232 -2.304,1.512 -4.248,3.456 -5.832,5.904 V -52.56 h -6.336 V 0 h 5.616 v -7.056 c 1.368,2.304 3.24,4.176 5.688,5.616 2.376,1.44 5.04,2.16 7.992,2.16 z m -1.584,-5.472 c -1.152,0 -2.376,-0.216 -3.6,-0.648 -1.224,-0.432 -2.376,-1.008 -3.456,-1.728 -1.08,-0.72 -2.016,-1.656 -2.808,-2.664 -0.792,-1.008 -1.296,-2.088 -1.512,-3.312 v -10.872 c 0.576,-1.152 1.224,-2.304 2.016,-3.384 0.792,-1.008 1.728,-1.944 2.736,-2.736 1.008,-0.792 2.16,-1.44 3.384,-1.944 1.152,-0.432 2.448,-0.72 3.816,-0.72 1.8,0 3.456,0.432 4.968,1.224 1.512,0.792 2.808,1.8 3.888,3.096 1.08,1.296 1.944,2.808 2.52,4.536 0.576,1.728 0.936,3.456 0.936,5.256 0,1.872 -0.36,3.6 -0.936,5.256 -0.648,1.656 -1.512,3.096 -2.664,4.392 -1.152,1.296 -2.52,2.376 -4.104,3.096 -1.584,0.792 -3.312,1.152 -5.184,1.152 z"
                      stroke-width="0" stroke-linejoin="miter" stroke-miterlimit="2" fill="#860973" stroke="#860973"
                      transform="translate(0 301.61980000000005) translate(420.32801375 44.218399999999995) scale(1.11) translate(-428.51825 52.56)"></path>
                <path id="path277304"
                      style="font-style:normal;font-weight:500;font-size:72px;line-height:1;font-family:'Raleway Medium Alt1';font-variant-ligatures:none;text-align:center;text-anchor:middle"
                      d="m 490.00963,0.72 c 1.87199,0 3.67199,-0.216 5.39999,-0.72 1.72801,-0.432 3.24001,-1.08 4.68,-1.944 1.44,-0.864 2.664,-1.872 3.744,-3.024 1.08001,-1.152 1.944,-2.376 2.59201,-3.816 l -5.47201,-1.512 c -0.432,1.008 -1.008,1.872 -1.728,2.592 -0.72,0.792 -1.584,1.44 -2.52,1.944 -1.00799,0.576 -2.016,1.008 -3.096,1.296 -1.152,0.288 -2.23199,0.432 -3.384,0.432 -1.656,0 -3.23999,-0.288 -4.68,-0.936 -1.44,-0.576 -2.736,-1.44 -3.888,-2.592 -1.152,-1.08 -2.088,-2.376 -2.808,-3.96 -0.72,-1.512 -1.15199,-3.24 -1.296,-5.112 h 31.176 c 0,-0.216 0.072,-0.576 0.072,-1.008 0,-0.432 0.072,-0.864 0.072,-1.44 0,-2.448 -0.504,-4.896 -1.368,-7.2 -0.864,-2.304 -2.16,-4.392 -3.744,-6.12 -1.65599,-1.728 -3.672,-3.168 -5.976,-4.248 -2.304,-1.008 -4.89599,-1.584 -7.704,-1.584 -2.88,0 -5.472,0.576 -7.77599,1.584 -2.37601,1.008 -4.392,2.448 -6.12,4.176 -1.72801,1.8 -3.024,3.888 -3.96001,6.192 -0.936,2.376 -1.368,4.896 -1.368,7.488 0,2.664 0.432,5.184 1.368,7.56 0.93601,2.376 2.232,4.464 3.96001,6.192 1.656,1.8 3.67199,3.24 6.048,4.248 2.30399,1.008 4.89599,1.512 7.776,1.512 z m 12.88799,-22.032 h -25.488 c 0.144,-1.728 0.50401,-3.384 1.224,-4.896 0.72001,-1.44 1.584,-2.736 2.736,-3.816 1.152,-1.08 2.44801,-1.944 3.96001,-2.52 1.44,-0.576 3.024,-0.936 4.75199,-0.936 1.656,0 3.24,0.36 4.752,0.936 1.44,0.576 2.736,1.44 3.88801,2.448 1.15199,1.08 2.08799,2.376 2.80799,3.888 0.72,1.512 1.224,3.168 1.368,4.896 z"
                      stroke-width="0" stroke-linejoin="miter" stroke-miterlimit="2" fill="#930a7f" stroke="#930a7f"
                      transform="translate(0 301.61980000000005) translate(467.32471445 60.122479999999996) scale(1.11) translate(-470.85762 38.232)"></path>
                <path id="path277306"
                      style="font-style:normal;font-weight:500;font-size:72px;line-height:1;font-family:'Raleway Medium Alt1';font-variant-ligatures:none;text-align:center;text-anchor:middle"
                      d="m 535.859,-32.04 v -5.76 c -0.288,0 -0.576,-0.072 -0.864,-0.072 h -1.224 c -2.448,0.216 -4.68,1.152 -6.768,2.736 -2.16,1.584 -3.816,3.672 -5.112,6.264 v -8.712 h -5.904 V 0 h 6.336 v -23.184 c 1.008,-2.736 2.664,-4.824 5.112,-6.408 2.448,-1.512 5.256,-2.304 8.424,-2.448 z"
                      stroke-width="0" stroke-linejoin="miter" stroke-miterlimit="2" fill="#a00c8c" stroke="#a00c8c"
                      transform="translate(0 301.61980000000005) translate(517.41832625 60.522079999999995) scale(1.11) translate(-515.987 37.872)"></path>
                <path id="path277308"
                      style="font-style:normal;font-weight:500;font-size:72px;line-height:1;font-family:'Raleway Medium Alt1';font-variant-ligatures:none;text-align:center;text-anchor:middle"
                      d="m 578.79125,-40.68 c -0.792,-1.944 -1.872,-3.672 -3.24,-5.256 -1.368,-1.584 -3.024,-2.808 -4.896,-3.744 -1.872,-0.936 -3.96,-1.44 -6.192,-1.44 h -21.312 v 20.448 h 6.48 V -45.36 h 14.472 c 1.224,0 2.376,0.288 3.528,0.792 1.08,0.576 2.088,1.296 2.952,2.232 0.864,1.008 1.512,2.088 2.016,3.384 0.504,1.296 0.792,2.736 0.792,4.176 0,1.44 -0.216,2.808 -0.648,4.104 -0.504,1.368 -1.08,2.448 -1.8,3.456 -0.792,1.008 -1.728,1.728 -2.808,2.304 -1.08,0.576 -2.304,0.792 -3.6,0.792 h -21.384 V 0 h 6.48 v -18.36 h 15.264 c 2.232,0 4.248,-0.432 6.12,-1.368 1.872,-0.864 3.456,-2.088 4.752,-3.672 1.296,-1.512 2.304,-3.24 3.096,-5.256 0.72,-1.944 1.08,-3.96 1.08,-6.12 0,-2.016 -0.432,-3.96 -1.152,-5.904 z"
                      stroke-width="0" stroke-linejoin="miter" stroke-miterlimit="2" fill="#ac0e99" stroke="#ac0e99"
                      transform="translate(0 301.61980000000005) translate(547.57064375 45.8168) scale(1.11) translate(-543.15125 51.12)"></path>
                <path id="path277310"
                      style="font-style:normal;font-weight:500;font-size:72px;line-height:1;font-family:'Raleway Medium Alt1';font-variant-ligatures:none;text-align:center;text-anchor:middle"
                      d="m 596.22875,0.72 c 2.88,0 5.616,-0.576 8.208,-1.728 2.592,-1.152 4.68,-2.88 6.408,-5.184 l 0.144,2.664 c 0.144,1.08 0.576,2.016 1.296,2.736 0.72,0.72 1.728,1.08 3.024,1.08 0.432,0 0.936,0 1.368,-0.072 0.432,0 0.936,-0.072 1.656,-0.216 v -5.472 c -1.368,0 -2.016,-0.792 -2.016,-2.304 v -15.336 c 0,-4.752 -1.44,-8.496 -4.176,-11.16 -2.736,-2.592 -6.624,-3.96 -11.52,-3.96 -4.896,0 -9.792,1.656 -14.616,4.896 l 2.088,4.104 c 4.176,-2.88 8.136,-4.392 11.952,-4.392 3.168,0 5.616,0.936 7.344,2.664 1.728,1.728 2.592,4.176 2.592,7.2 v 3.024 c -1.44,-0.576 -3.096,-1.008 -4.968,-1.368 -1.872,-0.288 -3.744,-0.504 -5.544,-0.504 -2.304,0 -4.464,0.288 -6.408,0.864 -1.944,0.576 -3.6,1.368 -5.04,2.376 -1.44,1.008 -2.52,2.232 -3.24,3.672 -0.792,1.44 -1.152,2.952 -1.152,4.68 0,1.728 0.288,3.24 0.936,4.68 0.648,1.44 1.512,2.664 2.664,3.672 1.152,1.08 2.448,1.944 4.032,2.52 1.512,0.576 3.168,0.864 4.968,0.864 z m 1.656,-4.752 c -1.152,0 -2.232,-0.144 -3.24,-0.576 -1.008,-0.36 -1.944,-0.864 -2.664,-1.584 -0.72,-0.648 -1.296,-1.44 -1.728,-2.376 -0.432,-0.864 -0.576,-1.872 -0.576,-2.952 0,-2.16 0.936,-3.888 2.952,-5.256 2.016,-1.296 4.608,-2.016 7.776,-2.016 3.312,0 6.48,0.648 9.576,1.8 v 5.544 c 0,1.008 -0.504,1.944 -1.368,2.808 -1.008,1.44 -2.52,2.52 -4.464,3.384 -1.944,0.864 -4.032,1.224 -6.264,1.224 z"
                      stroke-width="0" stroke-linejoin="miter" stroke-miterlimit="2" fill="#b910a6" stroke="#b910a6"
                      transform="translate(0 301.61980000000005) translate(592.5006687499999 60.122479999999996) scale(1.11) translate(-583.62875 38.232)"></path>
                <path id="path277312"
                      style="font-style:normal;font-weight:500;font-size:72px;line-height:1;font-family:'Raleway Medium Alt1';font-variant-ligatures:none;text-align:center;text-anchor:middle"
                      d="m 645.677,-1.872 -1.512,-5.04 c -0.432,0.288 -1.152,0.576 -2.16,1.008 -1.008,0.432 -2.16,0.576 -3.384,0.576 -1.152,0 -2.088,-0.288 -2.88,-0.936 -0.864,-0.576 -1.296,-1.584 -1.368,-3.024 v -23.328 h 8.424 v -4.968 h -8.424 v -12.528 h -6.336 v 12.528 h -5.112 v 4.968 h 5.112 v 25.272 c 0,2.736 0.792,4.68 2.52,5.976 1.656,1.296 3.672,1.872 5.976,1.872 1.008,0 1.944,-0.072 2.88,-0.216 0.936,-0.144 1.8,-0.36 2.592,-0.648 0.792,-0.288 1.512,-0.504 2.16,-0.792 0.576,-0.288 1.08,-0.504 1.512,-0.72 z"
                      stroke-width="0" stroke-linejoin="miter" stroke-miterlimit="2" fill="#c611b2" stroke="#c611b2"
                      transform="translate(0 301.61980000000005) translate(636.11950625 46.93568) scale(1.11) translate(-622.925 50.112)"></path>
                <path id="path277314"
                      style="font-style:normal;font-weight:500;font-size:72px;line-height:1;font-family:'Raleway Medium Alt1';font-variant-ligatures:none;text-align:center;text-anchor:middle"
                      d="m 684.1655,0 v -22.464 c 0,-2.16 -0.216,-4.248 -0.648,-6.192 -0.432,-1.944 -1.08,-3.6 -1.944,-5.04 -0.936,-1.368 -2.16,-2.448 -3.672,-3.312 -1.584,-0.792 -3.456,-1.224 -5.616,-1.224 -3.024,0 -5.832,0.792 -8.352,2.304 -2.592,1.584 -4.608,3.672 -6.048,6.408 v -23.04 h -6.336 V 0 h 6.336 v -22.68 c 0.432,-1.44 1.008,-2.736 1.872,-3.96 0.864,-1.152 1.8,-2.232 2.88,-3.096 1.08,-0.864 2.232,-1.512 3.528,-2.016 1.224,-0.504 2.448,-0.792 3.744,-0.792 2.592,0 4.536,1.008 5.904,2.88 1.296,1.872 2.016,4.752 2.016,8.64 V 0 Z"
                      stroke-width="0" stroke-linejoin="miter" stroke-miterlimit="2" fill="#d313bf" stroke="#d313bf"
                      transform="translate(0 301.61980000000005) translate(667.8927012500001 44.218399999999995) scale(1.11) translate(-651.5495 52.56)"></path>
            </g>
        </g>
    </g>
</svg>